<svg width="32" height="32" viewBox="0 0 32 32" fill="none" xmlns="http://www.w3.org/2000/svg">
<path d="M22.6265 4.26716C22.7103 4.25558 22.7948 4.24985 22.8793 4.25001C24.2275 4.2474 25.8362 4.9309 26.7597 5.9006C28.5105 7.73895 28.3622 9.3512 28.3503 11.6286C26.8155 11.6561 25.2111 11.6331 23.6718 11.633L14.7951 11.6325C13.3575 11.6325 11.8624 11.6133 10.4284 11.6453C10.3996 11.9729 10.4021 12.86 10.4383 13.1766C11.2813 13.2258 12.4717 13.1907 13.3334 13.1908L18.7422 13.1905L25.3751 13.1902C26.4982 13.1904 27.8275 13.2232 28.9367 13.1807L28.9371 21.2889C28.3643 21.2847 27.8292 21.2779 27.2775 21.37C24.919 21.7634 23.3485 23.2521 21.8489 24.9708C21.083 25.8486 19.9671 26.7875 19.0261 27.4885C18.4363 27.928 17.5734 28.3512 16.8141 28.41C16.4974 28.4497 15.3495 28.421 14.9806 28.421L11.0775 28.4225C11.0397 27.652 11.0668 26.6386 11.0666 25.8516L11.0656 21.0774L18.5849 21.0764C19.5834 21.0764 20.6178 21.0894 21.6137 21.0687C21.6237 20.551 21.6231 20.0332 21.6118 19.5155C20.8714 19.4926 20.0504 19.5082 19.3064 19.5081L15.1365 19.508L3.06384 19.5119L3.0625 11.3642C4.57771 11.4009 6.26477 11.3634 7.7923 11.3627L9.93793 11.3636C10.8443 11.3643 11.6432 11.4084 12.5389 11.1867C13.6728 10.906 14.6125 10.4713 15.5451 9.75669C16.3327 9.15324 16.9127 8.40828 17.5994 7.7018C18.7106 6.55867 20.019 5.26767 21.4772 4.58855C21.8146 4.43146 22.2656 4.32055 22.6265 4.26716Z" fill="black"/>
</svg>
