<svg width="326" height="72" viewBox="0 0 326 72" fill="none" xmlns="http://www.w3.org/2000/svg">
<path d="M55.3445 2.04766C55.5772 2.01549 55.8118 1.99958 56.0467 2.00002C59.7916 1.99277 64.2602 3.89138 66.8256 6.585C71.689 11.6915 71.277 16.17 71.2438 22.4962C66.9807 22.5724 62.5239 22.5087 58.2479 22.5084L33.5906 22.507C29.5973 22.5069 25.4441 22.4537 21.4609 22.5424C21.3809 23.4526 21.3877 25.9166 21.4885 26.7962C23.83 26.9329 27.1368 26.8354 29.5302 26.8355L44.5547 26.8349L62.9794 26.8339C66.0991 26.8344 69.7918 26.9255 72.8727 26.8075L72.8739 49.3303C71.2828 49.3187 69.7963 49.2998 68.2639 49.5554C61.7125 50.6483 57.3499 54.7835 53.1844 59.5579C51.057 61.9962 47.9573 64.6042 45.3434 66.5515C43.7049 67.7721 41.308 68.9477 39.1989 69.1111C38.3192 69.2214 35.1307 69.1418 34.1057 69.1416L23.2639 69.1459C23.1589 67.0056 23.2341 64.1906 23.2336 62.0044L23.2308 48.7428L44.1179 48.74C46.8913 48.74 49.7647 48.7762 52.5312 48.7187C52.5589 47.2806 52.5571 45.8421 52.5257 44.4041C50.4691 44.3406 48.1885 44.384 46.122 44.3837L34.5388 44.3833L1.00374 44.3942L1 21.7617C5.20892 21.8635 9.8952 21.7594 14.1383 21.7575L20.0984 21.7599C22.6162 21.7619 24.8352 21.8846 27.3232 21.2687C30.4732 20.489 33.0833 19.2813 35.6739 17.2964C37.8616 15.6201 39.4726 13.5508 41.3803 11.5883C44.4668 8.41298 48.1014 4.82685 52.1521 2.94041C53.089 2.50405 54.3419 2.19598 55.3445 2.04766Z" fill="white"/>
<path d="M313.103 27.0635C319.604 27.0635 324.178 31.8641 324.178 38.1011C324.178 44.3381 319.604 49.1387 313.103 49.1387C306.639 49.1387 302.065 44.3381 302.065 38.1011C302.065 31.8641 306.639 27.0635 313.103 27.0635ZM307.244 38.1011C307.244 41.5787 309.512 44.3003 313.103 44.3003C316.732 44.3003 319 41.5787 319 38.1011C319 34.6235 316.732 31.9019 313.103 31.9019C309.512 31.9019 307.244 34.6235 307.244 38.1011Z" fill="#E6E2E8"/>
<path d="M294.329 27.5168H299.47V48.6848H294.329V27.5168ZM294.253 24.5684V20.4482H299.545V24.5684H294.253Z" fill="#E6E2E8"/>
<path d="M274.697 38.101C274.697 41.5786 276.927 44.4514 280.67 44.4514C284.336 44.4514 286.566 41.5786 286.566 38.101C286.566 34.6234 284.336 31.7506 280.67 31.7506C276.927 31.7506 274.697 34.6234 274.697 38.101ZM269.708 48.685V20.335H274.848V31.297C276.285 28.4998 278.817 27.0634 281.993 27.0634C287.436 27.0634 291.745 31.3348 291.745 38.101C291.745 44.8672 287.436 49.1386 281.993 49.1386C278.855 49.1386 276.285 47.74 274.697 45.0562V48.685H269.708Z" fill="#E6E2E8"/>
<path d="M260.702 43.3174H266.372V48.685H260.702V43.3174Z" fill="#E6E2E8"/>
<path d="M238.847 27.5171H243.912V31.1459C245.046 28.4243 247.466 27.0635 250.301 27.0635C254.27 27.0635 257.407 29.7473 257.407 35.2283V48.6851H252.266V36.0599C252.266 33.3383 250.943 31.4483 248.222 31.4483C245.387 31.4483 243.988 33.4895 243.988 36.2489V48.6851H238.847V27.5171Z" fill="white"/>
<path d="M218.496 43.4309C218.496 40.3313 220.575 38.1389 223.939 37.0427L230.403 34.9259C230.138 32.7335 228.967 31.8641 226.396 31.8641C224.62 31.8641 222.541 32.2799 219.63 33.2627V28.3487C222.125 27.5927 224.62 27.0635 226.963 27.0635C233.125 27.0635 235.619 30.7301 235.619 35.9843V48.6851H230.63V45.8501C229.42 47.8913 227.266 49.1387 224.582 49.1387C220.764 49.1387 218.496 46.6439 218.496 43.4309ZM223.675 42.7505C223.675 44.1491 224.846 45.2453 226.547 45.2453C228.626 45.2453 230.479 43.6577 230.479 41.3141V38.6681L226.245 40.0289C224.657 40.5581 223.675 41.4653 223.675 42.7505Z" fill="white"/>
<path d="M212.399 48.9116C207.636 48.9116 206.087 46.6814 206.087 42.1832V32.1284H202.874V27.5168H206.087V23.5478L211.227 22.187V27.5168H216.179V32.1284H211.227V41.5028C211.227 43.5062 211.794 44.0732 213.533 44.0732C214.403 44.0732 215.31 43.922 216.141 43.733V48.4958C214.97 48.7226 213.722 48.9116 212.399 48.9116Z" fill="white"/>
<path d="M195.289 27.5168H200.43V48.6848H195.289V27.5168ZM195.213 24.5684V20.4482H200.505V24.5684H195.213Z" fill="white"/>
<path d="M181.04 27.517H186.105V32.2042C187.277 29.029 189.583 27.1768 193.476 27.1768V32.6578C192.871 32.5822 192.153 32.5444 191.51 32.5444C187.844 32.5444 186.181 34.6612 186.181 38.857V48.685H181.04V27.517Z" fill="white"/>
<path d="M160.689 43.4309C160.689 40.3313 162.768 38.1389 166.132 37.0427L172.596 34.9259C172.331 32.7335 171.159 31.8641 168.589 31.8641C166.812 31.8641 164.733 32.2799 161.823 33.2627V28.3487C164.318 27.5927 166.812 27.0635 169.156 27.0635C175.317 27.0635 177.812 30.7301 177.812 35.9843V48.6851H172.823V45.8501C171.613 47.8913 169.458 49.1387 166.775 49.1387C162.957 49.1387 160.689 46.6439 160.689 43.4309ZM165.867 42.7505C165.867 44.1491 167.039 45.2453 168.74 45.2453C170.819 45.2453 172.671 43.6577 172.671 41.3141V38.6681L168.438 40.0289C166.85 40.5581 165.867 41.4653 165.867 42.7505Z" fill="white"/>
<path d="M126.776 27.5171H131.841V31.1081C132.975 28.3865 135.319 27.0635 138.041 27.0635C140.876 27.0635 143.295 28.5377 144.353 31.4861C145.487 28.5377 148.058 27.0635 150.893 27.0635C154.748 27.0635 157.961 29.7473 157.961 35.2283V48.6851H152.82V36.0599C152.82 33.3383 151.611 31.4483 148.965 31.4483C146.243 31.4483 144.958 33.4895 144.958 36.2489V48.6851H139.817V36.0599C139.817 33.3383 138.57 31.4483 135.962 31.4483C133.24 31.4483 131.917 33.4895 131.917 36.2489V48.6851H126.776V27.5171Z" fill="white"/>
<path d="M106.425 43.4309C106.425 40.3313 108.504 38.1389 111.868 37.0427L118.332 34.9259C118.067 32.7335 116.896 31.8641 114.325 31.8641C112.549 31.8641 110.47 32.2799 107.559 33.2627V28.3487C110.054 27.5927 112.549 27.0635 114.892 27.0635C121.054 27.0635 123.548 30.7301 123.548 35.9843V48.6851H118.559V45.8501C117.349 47.8913 115.195 49.1387 112.511 49.1387C108.693 49.1387 106.425 46.6439 106.425 43.4309ZM111.604 42.7505C111.604 44.1491 112.775 45.2453 114.476 45.2453C116.555 45.2453 118.408 43.6577 118.408 41.3141V38.6681L114.174 40.0289C112.586 40.5581 111.604 41.4653 111.604 42.7505Z" fill="white"/>
<path d="M96.381 49.1387C94.869 49.1387 92.979 48.8741 90.8244 48.1937V43.3175C92.9034 44.1491 94.9824 44.6405 96.381 44.6405C98.082 44.6405 98.8758 43.7711 98.8758 42.7883C98.8758 41.5409 97.7796 40.9361 95.8896 40.1045C93.2058 38.9327 90.333 37.5719 90.333 33.5651C90.333 29.7095 93.0546 27.0635 98.0064 27.0635C99.5184 27.0635 101.371 27.2903 103.525 27.8951V32.7335C101.446 32.0153 99.405 31.5617 98.0064 31.5617C96.3054 31.5617 95.5494 32.3933 95.5494 33.4139C95.5494 34.5857 96.6456 35.1527 98.5356 35.9843C101.182 37.1561 104.092 38.5547 104.092 42.5993C104.092 46.4927 101.371 49.1387 96.381 49.1387Z" fill="white"/>
</svg>
